# xmcd CD database file
#
# Track frame offsets:
#	150
#	15542
#	34675
#	52272
#	97205
#	108957
#	126225
#	147437
#	174600
#	197625
#
# Disc length: 2965 seconds
#
# Revision: 4
# Processed by: cddbd v1.4PL0 Copyright (c) Steve Scherf et al.
# Submitted via: CDex 1.40Beta9
#
DISCID=900b930a
DTITLE=Bobby Bland and B. B. King - I Like To Live The Love
DYEAR=1974
DGENRE=Blues
TTITLE0=Three O'Clock Blues
TTITLE1=It's My Own Fault
TTITLE2=That's the Way Love Is
TTITLE3=I'm Sorry
TTITLE4=Don't Cry No More
TTITLE5=Don't Answer The Door
TTITLE6=Goin' Down Slow
TTITLE7=I Like To Live The Love
TTITLE8=Driftin' Blues
TTITLE9=Let The Good Times Roll
EXTD=YEAR: 1974 ID3G: 0
EXTT0=
EXTT1=
EXTT2=
EXTT3=
EXTT4=
EXTT5=
EXTT6=
EXTT7=
EXTT8=
EXTT9=
PLAYORDER=
